<?xml version="1.0" encoding="UTF-8"?>
<svg fill="#fff" fill-rule="evenodd" stroke="#000" stroke-linecap="round" stroke-linejoin="round" viewBox="0 0 516 163" xmlns="http://www.w3.org/2000/svg" xmlns:xlink="http://www.w3.org/1999/xlink">
<style><![CDATA[.B{stroke:none}.C{font-size:12px}.D{fill:#f2f2f2}.E{font-weight:bold}.F{text-decoration:underline}]]></style>
<use x=".5" y=".5" xlink:href="#b"/>
<symbol id="b" overflow="visible">
<g fill="#021f52">
<path d="M64 76l33-24L0 0v44zM0 52v110l100-55V58L4 156l28-83z" stroke="#021f52" stroke-linejoin="miter"/>
<path class="B" d="M152.358 35.433V62.04h-3.099v-17.85q0-2.115.26-5.177h-.074q-.445 1.8-.798 2.579l-9.092 20.447h-1.521l-9.073-20.299q-.39-.891-.798-2.728h-.074q.148 1.596.148 5.214V62.04h-3.006V35.433h4.119l8.164 18.555q.946 2.134 1.225 3.191h.111q.798-2.189 1.28-3.266l8.331-18.48h3.896z"/>
<path class="B" d="M158.004 38.216q-.816 0-1.392-.557-.575-.557-.575-1.41 0-.854.575-1.419.575-.566 1.392-.566.835 0 1.419.566.584.566.584 1.419 0 .816-.584 1.392-.584.575-1.419.575zm1.484 4.824v19h-3.043v-19h3.043z"/>
<path class="B" d="m176.6 58.274v2.895q-2.19 1.317-5.195 1.317-4.064 0-6.559-2.644-2.496-2.644-2.496-6.856 0-4.694 2.69-7.542t7.181-2.848q2.505 0 4.416 0.928v3.117q-2.115-1.484-4.527-1.484-2.913 0-4.778 2.087t-1.865 5.483q0 3.34 1.753 5.27t4.704 1.93q2.486 0 4.676-1.651z"/>
<path class="B" d="m189.11 42.966v3.154q-0.798-0.612-2.301-0.612-1.948 0-3.256 1.837t-1.308 5.01v9.686h-3.043v-19h3.043v3.915h0.074q0.649-2.004 1.985-3.126 1.336-1.123 2.987-1.123 1.188 0 1.818 0.26z"/>
<use class="B" xlink:href="#a"/>
<path class="B" d="M208.526 61.354v-3.266q2.486 1.837 5.474 1.837 4.008 0 4.008-2.672 0-.761-.343-1.289-.343-.529-.928-.937-.584-.408-1.373-.733-.789-.325-1.698-.677-1.262-.501-2.217-1.011-.956-.51-1.596-1.15-.64-.64-.965-1.457-.325-.816-.325-1.911 0-1.336.612-2.366.612-1.03 1.633-1.726 1.02-.696 2.329-1.048 1.308-.352 2.7-.352 2.468 0 4.416.853v3.08q-2.097-1.373-4.824-1.373-.853 0-1.54.195-.686.195-1.178.547-.492.353-.761.844-.269.492-.269 1.085 0 .742.269 1.243.269.501.789.891.519.39 1.262.705.742.315 1.689.687 1.262.482 2.264.993 1.002.51 1.707 1.15.705.64 1.085 1.475.38.835.38 1.985 0 1.41-.621 2.449-.622 1.039-1.661 1.726-1.039.687-2.393 1.02-1.355.334-2.839.334-2.932 0-5.084-1.132z"/>
<use class="B" x="33.889" xlink:href="#a"/>
<path class="B" d="m252.27 33.837v2.746q-0.891-0.501-2.023-0.501-3.191 0-3.191 4.026v2.932h4.453v2.598h-4.453v16.402h-3.024v-16.402h-3.247v-2.598h3.247v-3.08q0-2.987 1.726-4.722t4.305-1.735q1.392 0 2.208 0.334z"/>
<path class="B" d="M262.273 59.257v2.598q-1.076.594-2.839.594-4.991 0-4.991-5.566V45.638h-3.266V43.04h3.266v-4.639l3.043-.983v5.622h4.787v2.598h-4.787v10.706q0 1.911.649 2.727.649.816 2.152.816 1.15 0 1.985-.631z"/>
<path class="B" d="m137.11 119.59h-13.545v-51.114h14.115q27.019 0 27.019 24.916 0 11.834-7.503 19.016t-20.086 7.182zm0.428-45.696h-7.984v40.278h7.628q10.052 0 15.648-5.382t5.596-15.256q0-19.64-20.888-19.64zm54.919 9.196h6.06l-16.789 42.346q-4.491 11.335-12.618 11.335-2.281 0-3.814-0.463v-5.24q1.889 0.642 3.457 0.642 4.42 0 6.63-5.275l2.923-6.915-14.258-36.429h6.487l9.874 28.088q0.178 0.535 0.749 2.78h0.214q0.178-0.856 0.713-2.709l10.372-28.16zm38.131 14.186v22.314h-5.846v-20.817q0-11.62-8.483-11.62-4.384 0-7.254 3.297-2.869 3.297-2.869 8.323v20.816h-5.846v-36.5h5.846v6.06h0.143q4.135-6.915 11.976-6.915 5.988 0 9.161 3.867 3.172 3.867 3.172 11.175zm32.641-1.426v23.739h-5.846v-5.703h-0.143q-3.814 6.559-11.228 6.559-5.454 0-8.537-2.887t-3.083-7.663q0-10.23 12.048-11.905l10.943-1.533q0-9.303-7.521-9.303-6.594 0-11.905 4.491v-5.988q5.382-3.422 12.404-3.422 12.868 0 12.868 13.616zm-5.846 8.911v-3.636l-8.804 1.212q-4.064 0.57-6.131 2.014t-2.067 5.115q0 2.673 1.907 4.367 1.907 1.693 5.079 1.693 4.349 0 7.182-3.048 2.834-3.048 2.834-7.717zm64.188-7.663v22.492h-5.846v-20.959q0-6.06-1.871-8.769t-6.291-2.709q-3.743 0-6.363 3.422t-2.62 8.198v20.816h-5.846v-21.671q0-10.765-8.305-10.765-3.85 0-6.345 3.226t-2.495 8.394v20.816h-5.846v-36.5h5.846v5.774h0.143q3.885-6.63 11.335-6.63 3.743 0 6.523 2.085t3.814 5.471q4.063-7.557 12.119-7.557 12.048 0 12.048 14.864zm9.043-23.276q-1.568 0-2.673-1.069t-1.105-2.709 1.105-2.727 2.673-1.087q1.604 0 2.727 1.087t1.123 2.727q0 1.568-1.123 2.673t-2.727 1.105zm2.852 9.268v36.5h-5.846v-36.5h5.846zm32.214 29.264v5.561q-4.206 2.531-9.981 2.531-7.806 0-12.6-5.079t-4.794-13.171q0-9.018 5.168-14.489t13.794-5.471q4.812 0 8.483 1.782v5.988q-4.064-2.852-8.697-2.852-5.596 0-9.178 4.01t-3.582 10.533q0 6.416 3.368 10.123t9.036 3.707q4.776 0 8.982-3.172zm2.13 5.917v-6.273q4.776 3.529 10.515 3.529 7.699 0 7.699-5.133 0-1.461-0.66-2.477-0.659-1.016-1.782-1.8t-2.638-1.408-3.262-1.301q-2.424-0.963-4.26-1.943t-3.065-2.21q-1.23-1.23-1.853-2.798-0.624-1.568-0.624-3.671 0-2.566 1.176-4.545 1.176-1.978 3.137-3.315 1.96-1.337 4.473-2.014t5.186-0.677q4.741 0 8.483 1.64v5.917q-4.028-2.638-9.268-2.638-1.64 0-2.958 0.374-1.319 0.374-2.264 1.052-0.945 0.677-1.461 1.622-0.517 0.945-0.517 2.085 0 1.426 0.517 2.388t1.515 1.711q0.998 0.748 2.424 1.354t3.244 1.319q2.424 0.927 4.349 1.907t3.279 2.21 2.085 2.834 0.731 3.814q0 2.709-1.194 4.705t-3.19 3.315-4.598 1.96q-2.602 0.642-5.454 0.642-5.632 0-9.767-2.174zm46.934-0.57v-6.309q5.24 4.135 11.834 4.135 5.347 0 8.537-2.673t3.19-7.2q0-10.016-14.222-10.016h-4.242v-4.955h4.028q12.654 0 12.654-9.41 0-8.697-9.66-8.697-5.382 0-10.159 3.671v-5.703q4.919-2.923 11.62-2.923 6.452 0 10.319 3.422t3.867 8.769q0 10.087-10.266 12.975v0.143q5.525 0.535 8.786 3.867 3.262 3.333 3.262 8.323 0 6.879-4.937 11.103t-13.028 4.224q-7.272 0-11.584-2.745zm63.474-48.62v5.525q-3.957-2.032-8.341-2.032-6.808 0-10.889 6.06t-4.081 16.218h0.142q3.565-7.236 11.692-7.236 6.701 0 10.658 4.295t3.957 11.495q0 7.521-4.527 12.28-4.527 4.758-11.513 4.758-7.699 0-12.084-6.131-4.384-6.131-4.384-17.216 0-13.438 5.739-21.458t15.149-8.02q5.347 0 8.483 1.461zm-12.761 23.49q-4.527 0-7.343 3.065t-2.816 7.236q0 5.24 2.798 8.947t7.432 3.707q4.42 0 7.129-3.226t2.709-8.18q0-5.418-2.602-8.483t-7.307-3.065zm20.167 25.772v-6.202q5.24 3.386 10.658 3.386t8.733-3.065 3.315-8.127q0-5.026-3.386-7.842t-9.695-2.816q-2.139 0-8.02 0.428v-25.629h24.737v5.275h-19.212v14.971q2.353-0.143 4.349-0.143 8.198 0 12.689 4.117t4.491 11.282q0 7.414-4.83 11.941t-13.242 4.527q-7.093 0-10.586-2.103z"/>
</g>
</symbol>
<defs>
<path id="a" d="m197.35 62.486q-4.212 0-6.726-2.663t-2.514-7.06q0-4.787 2.616-7.478 2.616-2.69 7.069-2.69 4.249 0 6.633 2.616t2.384 7.255q0 4.546-2.57 7.283t-6.893 2.737zm0.223-17.33q-2.932 0-4.639 1.995t-1.707 5.501q0 3.377 1.726 5.325t4.62 1.948q2.95 0 4.537-1.911 1.586-1.911 1.586-5.437 0-3.562-1.586-5.492t-4.537-1.93z"/>
</defs>
</svg>
