<?xml version="1.0" encoding="UTF-8"?>
<!DOCTYPE svg  PUBLIC '-//W3C//DTD SVG 1.1//EN'  'http://www.w3.org/Graphics/SVG/1.1/DTD/svg11.dtd' [
	<!ENTITY ns_flows "http://ns.adobe.com/Flows/1.0/">
	<!ENTITY ns_extend "http://ns.adobe.com/Extensibility/1.0/">
	<!ENTITY ns_ai "http://ns.adobe.com/AdobeIllustrator/10.0/">
	<!ENTITY ns_graphs "http://ns.adobe.com/Graphs/1.0/">
]>
<svg enable-background="new 0 0 632 204" version="1.1" viewBox="0 0 632 204" xml:space="preserve" xmlns="http://www.w3.org/2000/svg">


	
		<path d="m85.2 39.25c5.97-0.4 12-0.47 17.96 0.05 15.51 3.06 28.43 15.83 32.21 31.11 1.42 5.19 1.45 10.63 0.95 15.95 6.33-0.78 12.92 0.37 18.25 3.99 7.46 4.83 12.01 13.81 11.3 22.7-0.17 12.851-11.94 24.47-24.88 23.95-26.35-0.02-52.7-0.01-79.05-0.01-5.21-0.01-10.59 0.31-15.56-1.53-9.71-3.21-17.78-10.94-21.45-20.479-2.57-6.021-2.06-12.761-1.66-19.141 2.36-14.75 15.52-26.49 30.21-28.24 4.66-14.1 17.04-25.59 31.72-28.35m-22.06 28.84c9.63 1.68 17.83 7.36 26.49 11.53-1.41 2.66-2.82 5.32-4.28 7.95-4.89-2.84-10.07-5.12-15.06-7.77-5.81-3.01-12.65-4.29-19.05-2.61-11.82 2.75-20.66 14.64-19.69 26.77 0.59 13.101 12.38 24.38 25.49 24.38 27.67 0.03 55.33-0.01 82.99 0.02 6.82 0.182 13.35-4.26 15.89-10.549 2.57-6.271 0.76-13.961-4.34-18.411-4.66-4.52-12.09-5.41-17.93-2.88-1.85 4.36-4.2 8.53-7.32 12.1-2.23-1.97-4.49-3.92-6.76-5.851 4.18-5.011 7.05-11.149 7.86-17.649 2.18-15.06-7.3-30.66-21.61-35.76-16.15-6.54-36.81 2.2-42.68 18.73z" fill="#409DE4"/>

<g fill="#409DE4">
	<path d="m412.74 81.79c5.398-7.09 14.49-10.83 23.31-10.32 7.96-0.31 16.63 2.521 21.16 9.46 1.87 3.11 4.12 6.34 4.37 10.06-5.5 1.5-10.62 4.06-16 5.91-1.47-3.13-2.66-6.82-5.88-8.63-3.852-2.1-9.28-1.04-11.71 2.75-2.95 4.36-3.33 9.9-3.24 15.02 0.32 4.55 1.01 9.46 4.05 13.069 3.13 3.781 9.392 3.859 12.96 0.681 2.16-1.92 3.521-4.511 5.04-6.931 5.102 2.791 10.28 5.42 15.392 8.189-3.512 7.512-9.922 13.86-18.132 15.83-8.688 1.92-18.55 1.38-25.93-4.068-7.34-5.142-11.17-13.98-12.01-22.69-1.01-9.77 0.43-20.39 6.62-28.33z"/>
	<path d="m527.75 72.54c5.55-0.05 11.11-0.04 16.67-0.02 5.44 11.76 11.13 23.42 15.83 35.51 4.63-12.1 10.39-23.72 15.72-35.51 5.521-0.02 11.04-0.02 16.562 0 0.06 21.44 0.09 42.871 0.06 64.3-5.7-0.021-11.39 0.01-17.07-0.03 0.03-10.47-0.198-20.96 0.102-31.431-4.39 11.649-10.21 22.701-15.49 33.951-5.29-11.131-10.61-22.25-15.61-33.512 0.57 10.32 0.182 20.67 0.28 31.012-5.68-0.012-11.358 0.028-17.04-0.03-0.044-21.421 0.016-42.83-0.014-64.24z"/>
	<path d="m466.76 72.52c10.41-0.02 20.82-0.01 31.23-0.01 6.648 0.16 13.89 1.85 18.43 7.08 4.6 5.27 4.95 12.87 3.85 19.46-1.108 5.97-5.438 10.89-10.93 13.33 4.38 8.101 8.53 16.31 12.91 24.41-6.81 0.03-13.63 0.04-20.45 0-3.479-7.14-6.88-14.31-10.42-21.42-2.27 0.01-4.54 0.021-6.8 0.021 0.04 7.129 0.01 14.271 0.02 21.409-5.948 0.011-11.898 0.04-17.84-0.02-0.04-21.421 0.01-42.84 0-64.26m17.76 14.65c0.07 4.57 0.062 9.15 0.012 13.72 4.68 0.15 9.438 0.48 14.06-0.51 5.852-1.58 5.58-11.91-0.58-12.84-4.462-0.68-9.002-0.27-13.492-0.37z"/>
</g>
<g fill="#121313">
	<path d="m303.25 69.26c5.47-1.9 13.42 1.13 13.31 7.72 0.21 9.55-15.27 11.33-18.8 3.3-1.97-4.43 0.67-10.03 5.49-11.02z"/>
	<path d="m321.55 76.26c5.521-2.09 10.932-4.479 16.46-6.58 0.23 22.37 0.021 44.75 0.12 67.12-5.55 0-11.09 0.011-16.63-0.01-0.02-20.181 0-40.35 0.05-60.53z"/>
	<path d="m207.04 72.49c6.08 0.04 12.15 0.01 18.23 0.02 7.79 21.43 15.58 42.86 23.37 64.29-6.55-0.01-13.11 0.021-19.66-0.021-1.17-3.729-2.32-7.469-3.52-11.189-6.29-0.04-12.58-0.01-18.87-0.02-1.16 3.74-2.37 7.47-3.45 11.229-6.51-0.01-13.02 0.021-19.53-0.02 7.85-21.42 15.52-42.899 23.43-64.289m8.91 20.21c-1.48 6.23-3.39 12.35-5 18.55 3.41 0.03 6.81 0.03 10.22 0.02-1.75-6.19-3.35-12.42-5.22-18.57z"/>
	<path d="m253.49 92.45c5.33-6.59 15.81-6.39 22.04-1.17-0.01-0.7-0.02-2.08-0.02-2.771h17c0.04 13.83 0.07 27.671 0.05 41.5-0.09 6.222-1.35 13.08-6.21 17.421-5.23 4.721-12.49 6.079-19.24 7.079-2.06-3.29-4.18-6.54-6.2-9.84 4.33-0.92 9.12-1.271 12.7-4.149 1.98-1.811 1.88-4.709 1.93-7.17-5.31 4.461-13.5 5.601-19.39 1.619-5.92-4.318-7.37-12.18-7.8-19.039-0.18-7.991-0.02-16.9 5.14-23.48m14.08 9.26c-2.71 2.181-2.56 6.12-2.83 9.29 0.2 4-0.18 8.59 2.41 11.91 2.62 1.9 6.02 0.55 8.36-1.16-0.06-6.15 0.01-12.3 0.02-18.45-2.25-1.68-5.24-2.76-7.96-1.59z"/>
	<path d="m345.98 96.93c7.27-12.39 28.278-12.96 35.778-0.55 3.972 6.28 4.222 14 4.03 21.19-9.46 0.01-18.92-0.021-28.38 0.02 0.71 2.79 2 5.99 5.1 6.79 5.3 1.42 10.812-0.59 15.521-2.989 2.25 3.59 4.358 7.271 6.59 10.879-7.78 4.642-17.18 6.75-26.14 4.95-7.521-1.659-13.49-8.01-15.24-15.438-2.029-8.202-1.639-17.452 2.741-24.852m11.35 9.92c4.55 0.301 9.12 0.17 13.688 0.16-0.42-4.08-3.608-8.21-8.158-7.05-3.6 0.23-4.71 4.02-5.53 6.89z"/>
	<path d="m298.26 88.51h16.771c0.17 16.08 0.028 32.16 0.09 48.24-5.63 0.08-11.25 0.061-16.88 0.03-0.071-16.091 0.069-32.18 0.019-48.27z"/>
</g>
</svg>
