<?xml version="1.0" encoding="utf-8"?>
<!-- Generator: Adobe Illustrator 21.0.1, SVG Export Plug-In . SVG Version: 6.00 Build 0)  -->
<svg version="1.1" id="Layer_1" xmlns="http://www.w3.org/2000/svg" xmlns:xlink="http://www.w3.org/1999/xlink" x="0px" y="0px"
	 viewBox="0 0 2211.3 522.2" style="enable-background:new 0 0 2211.3 522.2;" xml:space="preserve">
<style type="text/css">
	.st0{fill:#1F2E5C;}
	.st1{fill:#E02179;}
	.st2{fill:#42BB9C;}
</style>
<g>
	<path class="st0" d="M1520,262.8c-39.7-6-55.3-14.9-53.8-30.9c2.7-27.7,36-30.9,57.1-29.3c40.7,3,49.3,38.5,49.7,42.5l40-3.8
		c-2.3-25.4-22.7-74.6-83.1-79.2c-33-2.5-61.7,4.9-80.9,20.8c-14.7,12.1-26.8,30.5-28.2,49.6c-4.5,60.7,55.4,69.6,92.7,75.1
		c47.3,7.1,58.4,12.8,57.2,31.4c-0.5,8.8-5.1,17.4-12,23.1c-10.1,8.2-30.1,10.6-49.3,8.6c-44.7-4.7-48.6-33.2-48.9-38.6l-39.8,0.7
		c0.4,24.1,16.3,71.2,84,78.9c36.4,4.1,66.2-6.5,81.4-17.5c17.7-12.8,27.3-35.8,28.5-55.9C1618.3,275.8,1558,268.6,1520,262.8z"/>
	<path class="st0" d="M1748.4,370.6c59.6,0,55.1-67.7,55.1-67.7V168.3h46.4v134.5c0,0,0.1,1.5,0.1,4.3
		c-0.2,20.1-2.2,104.5-100,104.5h-3.1c-97.8,0-99.9-84.4-100-104.5c0-2.7,0.1-4.3,0.1-4.3V168.3h46.4v134.5
		C1693.2,302.8,1688.8,370.6,1748.4,370.6"/>
	<path class="st0" d="M2162.9,332.9c-13.2,23.4-39.7,36.7-68.3,36.7c-40.2,0-71.3-25-76.9-64.7h193.1c0.5-5.1,0.5-12.7,0.5-18.3
		c0-75.4-50.4-123.3-118.2-123.3c-67.8,0-121.7,47.9-121.7,123.3c0,75.4,54,124.8,121.7,124.8c41.9,0,81.6-17.9,103.7-52.8
		L2162.9,332.9z M2093.1,205c38.2,0,66.7,23.9,72.3,63.7h-147.7C2023.3,228.9,2053.9,205,2093.1,205z"/>
	<path class="st0" d="M1278.7,163.2c-33.1,0-67.2,15.3-83,42.3v-37.2h-46.4v353.5h46.4V370.5c15.8,27.5,49.9,40.8,83,40.8
		c65.2,0,119.2-47.9,119.2-123.3C1397.9,212.6,1343.9,163.2,1278.7,163.2z M1274.1,368.7c-38.2,0-79.9-27.3-79.9-78.2
		c0-50.4,39.8-83.6,81.6-83.6c42.8,0,77.3,32.3,77.3,79.6C1353.1,333.9,1316.9,368.7,1274.1,368.7z"/>
	<rect x="1889.9" y="38.9" class="st0" width="46.4" height="367.3"/>
	<path class="st0" d="M1014.2,200.8c1.1,0,2.3-0.1,3.5-0.1C1016.5,200.7,1015.3,200.7,1014.2,200.8L1014.2,200.8z"/>
	<path class="st0" d="M1014.3,161.6C1014.2,161.5,1014.2,161.5,1014.3,161.6L1014.3,161.6C1014.2,161.6,1014.2,161.6,1014.3,161.6z"
		/>
	<path class="st0" d="M1017.6,161.4c-1.1,0-2.2,0.1-3.4,0.1c0,0-0.1,0-0.1,0v-0.1c0,0-39.6,0.1-77.7,15.6l4.4,11.7l9.3,24.9
		c13.4-5.6,35.5-12.4,64-12.9c1.2,0,2.3-0.1,3.5-0.1c50.7,0,51.6,46.7,51.6,46.8l0,12.1l-80-0.6c-5.2,0-37.6-0.1-60.2,21.6
		c-5.4,5.2-9.7,11.3-13,18c-4.7,9.7-7.2,20.8-7.2,33c0,15.7,3.9,29.9,11.3,42.1c3.4,5.5,7.4,10.7,12.2,15.2
		c15.4,14.6,37.6,22.7,61.4,22.7c2,0,3.9-0.1,5.9-0.2c27.4-1.5,52.8-12.3,69.3-38.9l0,33.6h41.2V255.7
		C1110.4,217,1086.1,161.4,1017.6,161.4z M997.6,374.3c-14.8,0.8-47.4-6.9-47.4-42.7c0-9.4,8.9-33.4,37.9-33.4
		c29.1,0,79.6,0.2,79.6,0.2C1067.7,342.5,1042.1,371.9,997.6,374.3z"/>
	<path class="st0" d="M775.3,365.5c-73.4,0-130.4-59.6-130.4-134C644.9,157.1,702,97,775.3,97c35.1,0,66,14.3,89.3,36.3l28-37.7
		c-30.3-27.7-71.2-44.5-117.3-44.5c-99.3,0-177.8,80.5-177.8,180.3c0,99.3,78.5,179.8,177.8,179.8c40.4,0,76.9-12.9,105.8-34.7
		l-15.3-43.3C841.2,352.5,806.8,365.5,775.3,365.5z"/>
</g>
<g>
	<polygon class="st0" points="0.2,364.5 57.1,364.5 57.1,328.8 129.7,328.8 129.7,364.5 186.6,364.5 186.6,90 0.2,90 	"/>
	<path class="st0" d="M286.2,13.5L286.2,13.5c-8.6,0-15.6,7-15.6,15.6v0c0,8.6,7,15.6,15.6,15.6h0c8.6,0,15.6-7,15.6-15.6v0
		C301.8,20.5,294.8,13.5,286.2,13.5z"/>
	<path class="st0" d="M286.2,85.4L286.2,85.4c-8.6,0-15.6,7-15.6,15.6v0c0,8.6,7,15.6,15.6,15.6h0c8.6,0,15.6-7,15.6-15.6v0
		C301.8,92.4,294.8,85.4,286.2,85.4z"/>
	<path class="st0" d="M286.2,157.3L286.2,157.3c-8.6,0-15.6,7-15.6,15.6s7,15.6,15.6,15.6h0c8.6,0,15.6-7,15.6-15.6
		S294.8,157.3,286.2,157.3z"/>
	<path class="st0" d="M359.5,13.5L359.5,13.5c-8.6,0-15.6,7-15.6,15.6v0c0,8.6,7,15.6,15.6,15.6h0c8.6,0,15.6-7,15.6-15.6v0
		C375.1,20.5,368.1,13.5,359.5,13.5z"/>
	<path class="st0" d="M359.5,85.4L359.5,85.4c-8.6,0-15.6,7-15.6,15.6v0c0,8.6,7,15.6,15.6,15.6h0c8.6,0,15.6-7,15.6-15.6v0
		C375.1,92.4,368.1,85.4,359.5,85.4z"/>
	<path class="st0" d="M359.5,157.3L359.5,157.3c-8.6,0-15.6,7-15.6,15.6s7,15.6,15.6,15.6h0c8.6,0,15.6-7,15.6-15.6
		S368.1,157.3,359.5,157.3z"/>
	<path class="st0" d="M431.5,13.5L431.5,13.5c-8.6,0-15.6,7-15.6,15.6v0c0,8.6,7,15.6,15.6,15.6h0c8.6,0,15.6-7,15.6-15.6v0
		C447.2,20.5,440.2,13.5,431.5,13.5z"/>
	<path class="st0" d="M431.5,85.4L431.5,85.4c-8.6,0-15.6,7-15.6,15.6v0c0,8.6,7,15.6,15.6,15.6h0c8.6,0,15.6-7,15.6-15.6v0
		C447.2,92.4,440.2,85.4,431.5,85.4z"/>
	<path class="st0" d="M431.5,157.3L431.5,157.3c-8.6,0-15.6,7-15.6,15.6s7,15.6,15.6,15.6h0c8.6,0,15.6-7,15.6-15.6
		S440.2,157.3,431.5,157.3z"/>
</g>
<path class="st1" d="M95.5,269C44,267.8,1.2,308.6,0,360.1c-1.2,51.5,39.6,94.3,91.1,95.5c51.5,1.2,94.3-39.6,95.5-91.1
	C187.9,313,147.1,270.2,95.5,269z M124.5,395.7H62.1v-62.4h62.4V395.7z"/>
<g>
	
		<ellipse transform="matrix(2.338818e-02 -0.9997 0.9997 2.338818e-02 -2.1551 184.4612)" class="st2" cx="93.3" cy="93.3" rx="93.3" ry="93.3"/>
	<path class="st2" d="M263,251.3v192.3h192.3V251.3H263z M416.2,390.8H302.1V367h114.1V390.8z M416.2,327.8H302.1V304h114.1V327.8z"
		/>
</g>
</svg>
