<?xml version="1.0" encoding="UTF-8"?>
<svg version="1.1" viewBox="0 0 500 126.2" xmlns="http://www.w3.org/2000/svg" xmlns:cc="http://creativecommons.org/ns#" xmlns:dc="http://purl.org/dc/elements/1.1/" xmlns:rdf="http://www.w3.org/1999/02/22-rdf-syntax-ns#">
<metadata>
<rdf:RDF>
<cc:Work rdf:about="">
<dc:format>image/svg+xml</dc:format>
<dc:type rdf:resource="http://purl.org/dc/dcmitype/StillImage"/>
<dc:title/>
</cc:Work>
</rdf:RDF>
</metadata>
<g transform="translate(-29.049 -393.19)">
<g class="st0" transform="matrix(.84038 0 0 .84038 29.12 393.35)">
<g fill="#737373">
<path d="m110.4 43.1c-4.6-4.7-9.6-8.3-14.9-10.8s-12-3.7-19.7-3.7c-6.2 0-12.1 1.1-17.6 3.3s-10.3 5.3-14.4 9.3c-4.2 4-7.5 8.9-9.9 14.6s-3.6 12-3.6 19 1.2 13.3 3.6 19 5.7 10.5 9.9 14.5 9.1 7.2 14.6 9.4 11.5 3.3 17.8 3.3c6.7 0 12.6-0.9 17.6-2.8s9.3-4.5 12.9-7.7c2.4-2.2 4.6-4.9 6.5-8.1 1.9-3.3 3.4-6.9 4.5-10.9h-42.3v-24h69c0.4 1.6 0.7 3.5 1 5.9s0.4 4.6 0.4 6.9c0 9.5-1.4 18.1-4.2 26s-7.1 14.8-12.7 20.9c-6.3 6.7-13.8 11.8-22.6 15.5s-18.9 5.5-30.2 5.5c-10.2 0-19.8-1.8-28.8-5.5s-16.9-8.8-23.7-15.3c-6.7-6.5-12-14.2-16-23.1s-5.9-18.8-5.9-29.4 2-20.4 5.9-29.4 9.2-16.7 16-23.2c6.7-6.5 14.6-11.5 23.7-15.2s18.7-5.5 28.8-5.5c11.6 0 21.9 2 30.8 6s16.6 9.5 23.1 16.5l-19.6 19z"/>
<path d="m287.7 107.5c0 12.3-4.5 22.2-13.5 29.7-9.1 7.3-20.2 11-33.3 11-11.6 0-21.9-3.4-30.8-10.2s-15-16.1-18.4-27.8l17.2-7.1c1.2 4.2 2.8 8 4.9 11.4s4.5 6.3 7.3 8.7 5.9 4.3 9.3 5.7 7 2.1 10.8 2.1c8.2 0 15-2.1 20.2-6.4 5.2-4.2 7.8-9.9 7.8-16.9 0-5.9-2.2-10.9-6.5-15.1-4-4-11.6-8-22.7-11.8-11.2-4-18.2-6.8-21-8.2-14.9-7.6-22.3-18.7-22.3-33.5 0-10.3 4.1-19.1 12.3-26.4 8.4-7.3 18.6-11 30.8-11 10.7 0 20 2.7 27.8 8.2 7.8 5.4 13.1 12.1 15.7 20.2l-16.7 6.9c-1.6-5.2-4.7-9.6-9.3-13-4.6-3.5-10.3-5.2-16.9-5.2-7.1 0-13 2-17.8 5.9-4.8 3.6-7.2 8.4-7.2 14.2 0 4.8 1.9 9 5.7 12.5 4.2 3.5 13.3 7.7 27.2 12.5 14.2 4.8 24.4 10.8 30.5 17.8 5.9 7 8.9 15.6 8.9 25.8z"/>
<path d="m387.6 145h-17.2v-13.3h-0.8c-2.7 4.7-7 8.6-12.6 11.8-5.7 3.1-11.6 4.7-17.7 4.7-11.8 0-20.8-3.4-27.1-10.1s-9.5-16.3-9.5-28.7v-60.4h18v59.2c0.4 15.7 8.3 23.5 23.7 23.5 7.2 0 13.2-2.9 18-8.7s7.2-12.8 7.2-20.9v-53.1h18v96z"/>
<path d="m428.7 15.9c0 3.5-1.2 6.5-3.7 9s-5.5 3.7-9 3.7-6.5-1.2-9-3.7-3.7-5.5-3.7-9 1.2-6.5 3.7-9 5.5-3.7 9-3.7 6.5 1.2 9 3.7 3.7 5.5 3.7 9zm-3.7 33.1v96h-18v-96h18z"/>
<path d="m480.3 146.6c-7.8 0-14.3-2.4-19.5-7.2s-7.8-11.6-7.9-20.2v-53.7h-16.9v-16.5h16.8v-29.4h18v29.4h23.5v16.5h-23.5v47.8c0 6.4 1.2 10.7 3.7 13s5.3 3.4 8.4 3.4c1.4 0 2.8-0.2 4.2-0.5s2.6-0.8 3.8-1.3l5.7 16.1c-4.5 1.7-10 2.6-16.3 2.6z"/>
<path d="m547.7 148.1c-14.1 0-25.7-4.8-34.9-14.5-9.1-9.7-13.7-21.9-13.7-36.6 0-14.6 4.4-26.8 13.3-36.5s20.2-14.6 34.1-14.6c14.2 0 25.6 4.6 34 13.8s12.6 22.1 12.6 38.7l-0.2 2h-75.4c0.3 9.4 3.4 17 9.4 22.7s13.2 8.6 21.6 8.6c11.5 0 20.5-5.7 27-17.2l16.1 7.8c-4.3 8.1-10.3 14.4-17.9 19-7.7 4.5-16.4 6.8-26 6.8zm-28.8-62.7h55.1c-0.5-6.7-3.2-12.2-8.1-16.6s-11.5-6.6-19.7-6.6c-6.8 0-12.6 2.1-17.5 6.3-5 4.3-8.2 9.9-9.8 16.9z"/>
</g>
</g>
</g>
</svg>
