<svg width="100" height="100" viewBox="0 0 100 100" fill="none" xmlns="http://www.w3.org/2000/svg">
<circle cx="50" cy="50" r="48.5" stroke="#707CB1" stroke-width="3"/>
<path d="M44.7393 48.9795H48.6211C49.7279 48.9795 50.6393 48.7842 51.3555 48.3936C52.0879 48.0029 52.625 47.4495 52.9668 46.7334C53.3249 46.0173 53.5039 45.179 53.5039 44.2188C53.5039 43.3887 53.3411 42.6481 53.0156 41.9971C52.6901 41.346 52.1937 40.8333 51.5264 40.459C50.8753 40.0684 50.029 39.873 48.9873 39.873C48.2386 39.873 47.5225 40.0277 46.8389 40.3369C46.1715 40.6299 45.6263 41.0612 45.2031 41.6309C44.7799 42.1842 44.5684 42.8516 44.5684 43.6328H36.9268C36.9268 41.6471 37.4639 39.93 38.5381 38.4814C39.6286 37.0329 41.069 35.918 42.8594 35.1367C44.666 34.3392 46.6354 33.9404 48.7676 33.9404C51.2253 33.9404 53.3818 34.3311 55.2373 35.1123C57.109 35.8773 58.5576 37.0166 59.583 38.5303C60.6247 40.0277 61.1455 41.8831 61.1455 44.0967C61.1455 45.2523 60.8688 46.3672 60.3154 47.4414C59.7783 48.4993 59.0052 49.4434 57.9961 50.2734C57.0033 51.0872 55.8151 51.7383 54.4316 52.2266C53.0645 52.6986 51.5426 52.9346 49.8662 52.9346H44.7393V48.9795ZM44.7393 54.7168V50.835H49.8662C51.7217 50.835 53.3818 51.0465 54.8467 51.4697C56.3115 51.8929 57.5566 52.5033 58.582 53.3008C59.6074 54.0983 60.3887 55.0667 60.9258 56.2061C61.4629 57.3454 61.7314 58.6149 61.7314 60.0146C61.7314 61.6748 61.4059 63.1559 60.7549 64.458C60.1038 65.7601 59.1924 66.8587 58.0205 67.7539C56.8486 68.6491 55.4733 69.3327 53.8945 69.8047C52.3158 70.2604 50.6068 70.4883 48.7676 70.4883C47.2865 70.4883 45.8135 70.2848 44.3486 69.8779C42.8838 69.471 41.5573 68.8525 40.3691 68.0225C39.181 67.1761 38.2288 66.11 37.5127 64.8242C36.7965 63.5221 36.4385 61.9759 36.4385 60.1855H44.0801C44.0801 61.0156 44.2917 61.7643 44.7148 62.4316C45.1543 63.0827 45.7484 63.6035 46.4971 63.9941C47.262 64.3685 48.0921 64.5557 48.9873 64.5557C50.0615 64.5557 50.973 64.3604 51.7217 63.9697C52.4867 63.5628 53.0645 63.0094 53.4551 62.3096C53.862 61.6097 54.0654 60.804 54.0654 59.8926C54.0654 58.6556 53.8457 57.6628 53.4062 56.9141C52.9831 56.1491 52.3646 55.5957 51.5508 55.2539C50.737 54.8958 49.7604 54.7168 48.6211 54.7168H44.7393Z" fill="black"/>
</svg>
