<svg width="100" height="100" viewBox="0 0 100 100" fill="none" xmlns="http://www.w3.org/2000/svg">
<circle cx="50" cy="50" r="48.5" stroke="#707CB1" stroke-width="3"/>
<path d="M61.9512 64.0674V70H37.3906V64.9707L48.8652 52.8125C49.9395 51.5755 50.7939 50.485 51.4287 49.541C52.0798 48.597 52.5518 47.7425 52.8447 46.9775C53.1377 46.1963 53.2842 45.4801 53.2842 44.8291C53.2842 43.7712 53.1133 42.876 52.7715 42.1436C52.446 41.4111 51.9658 40.8496 51.3311 40.459C50.6963 40.0684 49.9232 39.873 49.0117 39.873C48.0352 39.873 47.1969 40.1253 46.4971 40.6299C45.7972 41.1344 45.2601 41.8343 44.8857 42.7295C44.5114 43.6084 44.3242 44.6094 44.3242 45.7324H36.6582C36.6582 43.5677 37.179 41.5983 38.2207 39.8242C39.2624 38.0339 40.7191 36.6097 42.5908 35.5518C44.4626 34.4775 46.6517 33.9404 49.1582 33.9404C51.7298 33.9404 53.8864 34.3473 55.6279 35.1611C57.3695 35.9749 58.6878 37.1387 59.583 38.6523C60.4782 40.166 60.9258 41.9889 60.9258 44.1211C60.9258 45.3255 60.7305 46.4893 60.3398 47.6123C59.9655 48.7354 59.4202 49.8503 58.7041 50.957C57.988 52.0638 57.1253 53.195 56.1162 54.3506C55.1071 55.4899 53.9678 56.6943 52.6982 57.9639L47.3271 64.0674H61.9512Z" fill="black"/>
</svg>
